<svg xmlns="http://www.w3.org/2000/svg" viewBox="0 0 24 30" x="0px" y="0px" width="16" height="16"><title>up down arrow 2</title><g data-name="up down arrow 2"><path d="M5.29,8.71a1,1,0,0,1,0-1.42l6-6a1,1,0,0,1,1.42,0l6,6a1,1,0,0,1,0,1.42,1,1,0,0,1-1.42,0L12,3.41,6.71,8.71A1,1,0,0,1,5.29,8.71Zm12,6.58L12,20.59l-5.29-5.3a1,1,0,0,0-1.42,1.42l6,6a1,1,0,0,0,1.42,0l6-6a1,1,0,0,0-1.42-1.42Z"/></g><text x="0" y="39" fill="#000000" font-size="5px" font-weight="bold" font-family="'Helvetica Neue', Helvetica, Arial-Unicode, Arial, Sans-serif">Created by MHD AZMI DWIPRANATA</text><text x="0" y="44" fill="#000000" font-size="5px" font-weight="bold" font-family="'Helvetica Neue', Helvetica, Arial-Unicode, Arial, Sans-serif">from the Noun Project</text></svg>