<svg id="_x31__px" height="24" viewBox="0 0 24 24" width="24" xmlns="http://www.w3.org/2000/svg" fill="#bdbdbd"><g><path d="m22.5 15h-8.25c-.276 0-.5-.224-.5-.5s.224-.5.5-.5h8.25c.309 0 .5-.265.5-.51 0-.084-.028-.177-.081-.266-.874-1.388-2.387-2.224-4.039-2.224h-14.076c-.658 0-1.233-.422-1.431-1.049l-.913-2.901c-.197-.628-.772-1.05-1.431-1.05l-.029 5.5c0 1.378 1.122 2.5 2.5 2.5h6.25c.276 0 .5.224.5.5s-.224.5-.5.5h-6.25c-1.93 0-3.5-1.57-3.5-3.5v-5.471c0-.567.462-1.029 1.029-1.029 1.098 0 2.056.703 2.385 1.75l.913 2.9c.066.209.257.35.477.35h14.076c1.998 0 3.827 1.011 4.893 2.704.151.256.227.524.227.786 0 .833-.673 1.51-1.5 1.51z"/></g><g><path d="m9.392 21h-1.892c-.164 0-.317-.081-.411-.215-.093-.135-.115-.307-.057-.46l3-8c.097-.259.385-.389.644-.292.258.097.389.385.292.644l-2.746 7.323h1.17c.521 0 .996-.264 1.272-.705l4.413-7.06c.146-.234.455-.306.689-.159.234.146.305.455.159.689l-4.413 7.06c-.46.736-1.253 1.175-2.12 1.175z"/></g><g><path d="m9.75 11c-.202 0-.393-.124-.468-.324l-2.25-6c-.058-.154-.036-.326.057-.461.094-.134.247-.215.411-.215h1.892c.868 0 1.66.439 2.12 1.175l3.163 5.06c.146.234.075.543-.159.689-.235.147-.542.076-.689-.159l-3.163-5.06c-.276-.441-.752-.705-1.272-.705h-1.17l1.997 5.324c.097.259-.034.547-.292.644-.059.022-.118.032-.177.032z"/></g></svg>